# xmcd
#
# Track frame offsets: 
#        150
#        17310
#        36382
#        56940
#        82617
#        96246
#        119296
#        150202
#        162860
#        182319
#        202675
#        225629
#        245774
#        265769
#        283982
#        299590
#        318316
#        329296
#
# Disc length: 4720 seconds
#
# Revision: 0
# Processed by: cddbd v1.5PL3 Copyright (c) Steve Scherf et al.
# Submitted via: ExactAudioCopy v0.95a4
#
DISCID=eb126e12
DTITLE=Various Artist - 发烧专门店 3
DYEAR=1900
DGENRE=另类音乐
TTITLE0=走过绿意\\凯文柯恩
TTITLE1=美女与野兽\\娜娜与亨利贝拉方提
TTITLE2=追梦人\\班得瑞
TTITLE3=旅程\\美国国家公园系列
TTITLE4=古奇连\\雷恩.寇伯
TTITLE5=倾盆大雨\\贝利卡登乐团
TTITLE6=鸟瞰\\美国国家公园系列
TTITLE7=来吧，亚诺\\未知艺术家
TTITLE8=你是我诚心所愿\\大卫.杨
TTITLE9=吹不散的思念\\约翰.米尔斯
TTITLE10=杜内嘉之路\\尼吉霍顿
TTITLE11=孰能无情\\凯文柯恩
TTITLE12=黄金大地\\圣恩乐团
TTITLE13=新天堂乐园\\安纳斯塔西
TTITLE14=摆渡人之歌\\依莉莎白
TTITLE15=祝福\\郭虔哲
TTITLE16=水印\\恩雅
TTITLE17=闲云野鹤\\刘星
EXTD=
EXTT0=
EXTT1=
EXTT2=
EXTT3=
EXTT4=
EXTT5=
EXTT6=
EXTT7=
EXTT8=
EXTT9=
EXTT10=
EXTT11=
EXTT12=
EXTT13=
EXTT14=
EXTT15=
EXTT16=
EXTT17=
PLAYORDER=
